@startuml
class SettingsViewModel {
    + ScreenTitle : string <<get>>
    + SettingsViewModel()
    + SettingsViewModel(settings:Settings)
}
class "IEnumerable`1"<T> {
}
ViewModelBase <|-- SettingsViewModel
SettingsViewModel --> "_settings" Settings
SettingsViewModel --> "Settings" Settings
SettingsViewModel --> "SettingFields<(FieldInfo field, Configurable conf)>" "IEnumerable`1"
@enduml
